{"title":"Kiyoshi Kurosawa - Charisma.DVD.x264-PTP","uid":11014866,"size":2385538643,"categoryP":"video","categoryS":"movies","magnet":"?xt=urn:btih:300d614e4664eac50a8b4f6bfeeb25af79011907&amp;dn=Kiyoshi+Kurosawa+-+Charisma.DVD.x264-PTP&amp;tr=udp%3A%2F%2Ftracker.openbittorrent.com%3A80&amp;tr=udp%3A%2F%2Fopen.demonii.com%3A1337&amp;tr=udp%3A%2F%2Ftracker.coppersurfer.tk%3A6969&amp;tr=udp%3A%2F%2Fexodus.desync.com%3A6969","seeders":5,"leechers":0,"uploader":"rpessoa","files":1,"time":1410453330,"description":"A seasoned detective is called in to rescue a politician held hostage by a lunatic. In a brief moment of uncertainty, he misses the chance for action. Leaving his job and family without explanation, he makes his way to a mountain forest, where there is a peculiar tree called charisma. Should it be destroyed or protected? People stand divided over this one tree. Written by amirmu\n &lt;a href=&quot;\nhttp://www.imdb.com/title/tt0201517/&quot; rel=&quot;nofollow&quot; target=&quot;_NEW&quot;&gt;\nhttp://www.imdb.com/title/tt0201517/&lt;/a&gt;\n\nGeneral\nUnique ID                                : 236794371584309329883267316598545658653 (0xB224EFE51B9A3DE8931DE400816D331D)\nComplete name                            : Charisma.DVD.x264-PTP.mkv\nFormat                                   : Matroska\nFormat version                           : Version 2\nFile size                                : 2.22 GiB\nDuration                                 : 1h 43mn\nOverall bit rate                         : 3 066 Kbps\nEncoded date                             : UTC 2012-11-27 07:16:45\nWriting application                      : mkvmerge v5.8.0 ('No Sleep / Pillow') built on Sep  2 2012 15:37:04\nWriting library                          : libebml v1.2.3 + libmatroska v1.3.0\n\nVideo\nID                                       : 1\nFormat                                   : AVC\nFormat/Info                              : Advanced Video Codec\nFormat profile                           : &lt;a class=&quot;__cf_email__&quot; href=&quot;/cdn-cgi/l/email-protection&quot; data-cfemail=&quot;84ccede3ecc4c8b7aab5&quot;&gt;[email&amp;#160;protected]&lt;/a&gt;&lt;script cf-hash='f9e31' type=&quot;text/javascript&quot;&gt;\n/* &lt;![CDATA[ */!function(){try{var t=&quot;currentScript&quot;in document?document.currentScript:function(){for(var t=document.getElementsByTagName(&quot;script&quot;),e=t.length;e--;)if(t[e].getAttribute(&quot;cf-hash&quot;))return t[e]}();if(t&amp;&amp;t.previousSibling){var e,r,n,i,c=t.previousSibling,a=c.getAttribute(&quot;data-cfemail&quot;);if(a){for(e=&quot;&quot;,r=parseInt(a.substr(0,2),16),n=2;a.length-n;n+=2)i=parseInt(a.substr(n,2),16)^r,e+=String.fromCharCode(i);e=document.createTextNode(e),c.parentNode.replaceChild(e,c)}}}catch(u){}}();/* ]]&gt; */&lt;/script&gt;\nFormat settings, CABAC                   : Yes\nFormat settings, ReFrames                : 16 frames\nCodec ID                                 : V_MPEG4/ISO/AVC\nDuration                                 : 1h 43mn\nBit rate                                 : 2 813 Kbps\nWidth                                    : 712 pixels\nHeight                                   : 348 pixels\nDisplay aspect ratio                     : 16:9\nOriginal display aspect ratio            : 16:9\nFrame rate                               : 23.976 fps\nColor space                              : YUV\nChroma subsampling                       : 4:2:0\nBit depth                                : 8 bits\nScan type                                : Progressive\nBits/(Pixel*Frame)                       : 0.474\nStream size                              : 2.04 GiB (92%)\nWriting library                          : x264 core 129 r2230 1cffe9f\nEncoding settings                        : cabac=1 / ref=16 / deblock=1:-3:-3 / analyse=0x3:0x133 / me=umh / subme=11 / psy=1 / psy_rd=1.00:0.00 / mixed_ref=1 / me_range=24 / chroma_me=1 / trellis=2 / 8x8dct=1 / cqm=0 / deadzone=21,11 / fast_pskip=0 / chroma_qp_offset=-2 / threads=4 / lookahead_threads=1 / sliced_threads=0 / nr=0 / decimate=1 / interlaced=0 / bluray_compat=0 / constrained_intra=0 / bframes=8 / b_pyramid=2 / b_adapt=2 / b_bias=0 / direct=3 / weightb=1 / open_gop=0 / weightp=2 / keyint=250 / keyint_min=23 / scenecut=40 / intra_refresh=0 / rc_lookahead=60 / rc=crf / mbtree=1 / crf=16.5 / qcomp=0.70 / qpmin=0 / qpmax=69 / qpstep=4 / ip_ratio=1.40 / aq=1:1.20\nLanguage                                 : English\nDefault                                  : Yes\nForced                                   : Yes\n\nAudio\nID                                       : 2\nFormat                                   : AC-3\nFormat/Info                              : Audio Coding 3\nMode extension                           : CM (complete main)\nCodec ID                                 : A_AC3\nDuration                                 : 1h 43mn\nBit rate mode                            : Constant\nBit rate                                 : 192 Kbps\nChannel(s)                               : 2 channels\nChannel positions                        : Front: L R\nSampling rate                            : 44.1 KHz\nBit depth                                : 16 bits\nCompression mode                         : Lossy\nDelay relative to video                  : 12ms\nStream size                              : 142 MiB (6%)\nLanguage                                 : Japanese\nDefault                                  : Yes\nForced                                   : Yes\n\nText\nID                                       : 3\nFormat                                   : UTF-8\nCodec ID                                 : S_TEXT/UTF8\nCodec ID/Info                            : UTF-8 Plain Text\nTitle                                    : English\nLanguage                                 : English\nDefault                                  : Yes\nForced                                   : No\n\nMenu\n00:00:00.000                             : Help Them Both\n00:05:05.634                             : Anywhere\n00:09:04.834                             : This Forest\n00:12:31.635                             : Extended Vacation\n00:15:54.135                             : Checking In\n00:19:09.702                             : Magic Mushroom\n00:20:52.069                             : Don't Touch\n00:25:03.569                             : Introductions\n00:30:49.736                             : Steady Hiss\n00:35:35.403                             : Nature Lesson\n00:40:19.436                             : Bad For You\n00:45:49.436                             : Loyalties\n00:50:11.270                             : Individaul Freedoms\n00:56:24.837                             : Freedom Disease\n01:02:32.738                             : Poached\n01:10:23.738                             : Another Tree\n01:18:28.340                             : Plans\n01:25:16.507                             : Done Deal\n01:27:57.341                             : Lost In The Woods\n01:33:55.408                             : Just The Beginning\n01:40:57.009                             : End Credits","torrent":{"xt":"urn:btih:300d614e4664eac50a8b4f6bfeeb25af79011907","amp;dn":"Kiyoshi+Kurosawa+-+Charisma.DVD.x264-PTP","amp;tr":["udp%3A%2F%2Ftracker.openbittorrent.com%3A80","udp%3A%2F%2Fopen.demonii.com%3A1337","udp%3A%2F%2Ftracker.coppersurfer.tk%3A6969","udp%3A%2F%2Fexodus.desync.com%3A6969"],"infoHash":"300d614e4664eac50a8b4f6bfeeb25af79011907","infoHashBuffer":{"type":"Buffer","data":[48,13,97,78,70,100,234,197,10,139,79,107,254,235,37,175,121,1,25,7]},"announce":[],"urlList":[]}}